<?xml version="1.0" encoding="utf-8"?>
<?xml-stylesheet type="text/xsl" href="rss1.xsl"?>
<rss version="2.0" xmlns:atom="http://www.w3.org/2005/Atom" xmlns:content="http://purl.org/rss/1.0/modules/content/" xmlns:dc="http://purl.org/dc/elements/1.1/" xmlns:media="http://search.yahoo.com/mrss/">
<channel>
 <title>Getty</title>
 <link>http://www.gettyimg.com/</link>
 <atom:link href="http://www.gettyimg.com/" rel="self" type="application/rss+xml" />

 
                <item>
                <title><![CDATA[【Cinema Center】MOVIE - Hocus.Pocus.1993.1080p.DSNP.WEB-DL.DDP5.1.H.264-Samuel]]></title>
                <link><![CDATA[https://sharemania.us/threads/hocus-pocus-1993-1080p-dsnp-web-dl-ddp5-1-h-264-samuel.224202/]]></link>
                <description><![CDATA[<article>
<blockquote class="messageText SelectQuoteContainer ugc baseHtml">
<div style="text-align: center"><b><span style="font-size: 26px">Hocus Pocus</span></b><br>
<img src="https://i.imgur.com/61MSa1U.png" class="bbCodeImage LbImage" alt="[​IMG]" data-url="https://i.imgur.com/61MSa1U.png" style=""><br>
<b><a href="https://i.imgur.com/ZOTWanZ.jpg" target="_blank" class="externalLink" rel="nofollow">Alternate Artwork 1</a></b> | <b><a href="https://i.imgur.com/CmTrbyc.jpg" target="_blank" class="externalLink" rel="nofollow">Alternate Artwork 2</a></b> | <b><a href="https://i.imgur.com/xalEk6f.jpg" target="_blank" class="externalLink" rel="nofollow">Alternate Artwork 3</a></b> | <b><a href="https://i.imgur.com/ZkZU3nu.jpg" target="_blank" class="externalLink" rel="nofollow">Alternate Artwork 4</a></b> | <b><a href="https://i.imgur.com/HlnJOj5.jpg" target="_blank" class="externalLink" rel="nofollow">Poster 1</a></b> | <b><a href="https://i.imgur.com/jRw03Fy.jpg" target="_blank" class="externalLink" rel="nofollow">Poster 2</a></b> | <b><a href="https://i.imgur.com/zWudhsn.jpg" target="_blank" class="externalLink" rel="nofollow">Key Art</a></b><br>
<br>
<img src="https://i.imgur.com/qhRKRmw.png" class="bbCodeImage LbImage" alt="[​IMG]" data-url="https://i.imgur.com/qhRKRmw.png" style=""> <img src="https://i.imgur.com/07aSjdz.png" class="bbCodeImage LbImage" alt="[​IMG]" data-url="https://i.imgur.com/07aSjdz.png" style=""> <img src="https://i.imgur.com/AtOIaDi.png" class="bbCodeImage LbImage" alt="[​IMG]" data-url="https://i.imgur.com/AtOIaDi.png" style=""><br>
1993 • 1h 36m<br>
Family, Comedy, Fantasy<br>
<br>
<div class="bbCodeBlock bbCodeQuote">
<aside>
<blockquote class="quoteContainer"><div class="quote"><b><span style="font-size: 15px"><span style="font-family: 'Arial'">Description</span></span></b><br>
Conjured up by some unsuspecting pranksters, a tricky trio of 300-year-old witches set out to cast a spell on the town and reclaim their youth. But first, they must get their act together and outwit three kids and a talking cat.</div><div class="quoteExpand">Click to expand...</div></blockquote>
</aside>
</div>
<div class="bbCodeBlock bbCodeQuote">
<aside>
<blockquote class="quoteContainer"><div class="quote"><b><span style="font-size: 15px"><span style="font-family: 'Arial'">More Information</span></span></b><br>
<b>Long Description:</b><br>
You're in for a devil of a time when three outlandishly wild witches---Bette Midler, Sarah Jessica Parker and Kathy Najimy---return from 17th-century Salem after they're accidentally conjured up by some unsuspecting pranksters. It's a night full of zany fun and comic chaos once the tricky 300-year-old trio set out to cast a spell on the town and reclaim their youth...but first they must get their act together and outwit three kids and a talking cat. Contains tobacco depictions.<br>
<b>Duration:</b> 1h 36m<br>
<b>Release Date:</b> 1993<br>
<b>Genre:</b> Family, Comedy, Fantasy<br>
<b>Rating:</b> <img src="https://i.imgur.com/qhRKRmw.png" class="bbCodeImage LbImage" alt="[​IMG]" data-url="https://i.imgur.com/qhRKRmw.png" style=""><br>
<b>Director:</b> Kenny Ortega<br>
<b>Starring:</b> Bette Midler, Sarah Jessica Parker, Kathy Najimy, Omri Katz, Thora Birch, Vinessa Shaw</div><div class="quoteExpand quoteCut">Click to expand...</div></blockquote>
</aside>
</div>
<div class="bbCodeBlock bbCodeQuote">
<aside>
<blockquote class="quoteContainer"><div class="quote"><b><b><span style="font-size: 15px">Source</span></b></b><br>
<img src="https://i.imgur.com/zIQLtMk.png" class="bbCodeImage LbImage" alt="[​IMG]" data-url="https://i.imgur.com/zIQLtMk.png" style=""></div><div class="quoteExpand">Click to expand...</div></blockquote>
</aside>
</div>
<div class="bbCodeBlock bbCodeQuote">
<aside>
<blockquote class="quoteContainer"><div class="quote"><b><span style="font-size: 15px">Release Name</span></b><br>
Hocus.Pocus.1993.1080p.DSNP.WEB-DL.DDP5.1.H.264-Samuel</div><div class="quoteExpand">Click to expand...</div></blockquote>
</aside>
</div>
<div class="ToggleTriggerAnchor bbCodeSpoilerContainer">
<button type="button" class="button bbCodeSpoilerButton ToggleTrigger Tooltip JsOnly" data-target="> .SpoilerTarget"><span>Spoiler: <span class="SpoilerTitle">Media Information</span></span></button>
<div class="SpoilerTarget bbCodeSpoilerText">General<br>
Complete name : Hocus.Pocus.1993.1080p.DSNP.WEB-DL.DDP5.1.H.264-Samuel.mkv<br>
Format : Matroska<br>
Format version : Version 4<br>
File size : 6.57 GiB<br>
Duration : 1 h 36 min<br>
Overall bit rate mode : Variable<br>
Overall bit rate : 9 794 kb/s<br>
Frame rate : 23.976 FPS<br>
Encoded date : 2023-07-10 01:28:34 UTC<br>
Writing application : mkvmerge v72.0.0 ('Minuano (Six-eight)') 64-bit<br>
Writing library : libebml v1.4.4 + libmatroska v1.7.1<br>
<br>
Video<br>
ID : 1<br>
Format : AVC<br>
Format/Info : Advanced Video Codec<br>
Format profile : High@L4<br>
Format settings : CABAC / 4 Ref Frames<br>
Format settings, CABAC : Yes<br>
Format settings, Reference frames : 4 frames<br>
Codec ID : V_MPEG4/ISO/AVC<br>
Duration : 1 h 36 min<br>
Bit rate mode : Variable<br>
Bit rate : 7 116 kb/s<br>
Maximum bit rate : 12.7 Mb/s<br>
Width : 1 920 pixels<br>
Height : 1 080 pixels<br>
Display aspect ratio : 16:9<br>
Frame rate mode : Constant<br>
Frame rate : 23.976 (24000/1001) FPS<br>
Color space : YUV<br>
Chroma subsampling : 4:2:0<br>
Bit depth : 8 bits<br>
Scan type : Progressive<br>
Bits/(Pixel*Frame) : 0.143<br>
Stream size : 4.78 GiB (73%)<br>
Default : Yes<br>
Forced : No<br>
Color range : Limited<br>
Color primaries : BT.709<br>
Transfer characteristics : BT.709<br>
Matrix coefficients : BT.709<br>
<br>
Audio #1<br>
ID : 2<br>
Format : E-AC-3<br>
Format/Info : Enhanced AC-3<br>
Commercial name : Dolby Digital Plus<br>
Codec ID : A_EAC3<br>
Duration : 1 h 36 min<br>
Bit rate mode : Constant<br>
Bit rate : 256 kb/s<br>
Channel(s) : 6 channels<br>
Channel layout : L R C LFE Ls Rs<br>
Sampling rate : 48.0 kHz<br>
Frame rate : 31.250 FPS (1536 SPF)<br>
Compression mode : Lossy<br>
Stream size : 176 MiB (3%)<br>
Language : English<br>
Service kind : Complete Main<br>
Default : Yes<br>
Forced : No<br>
<br>
Audio #2<br>
ID : 3<br>
Format : AAC LC<br>
Format/Info : Advanced Audio Codec Low Complexity<br>
Codec ID : A_AAC-2<br>
Duration : 1 h 36 min<br>
Bit rate : 125 kb/s<br>
Channel(s) : 2 channels<br>
Channel layout : L R<br>
Sampling rate : 48.0 kHz<br>
Frame rate : 46.875 FPS (1024 SPF)<br>
Compression mode : Lossy<br>
Stream size : 86.2 MiB (1%)<br>
Title : Audio Description<br>
Language : English<br>
Default : No<br>
Forced : No<br>
<br>
Audio #3<br>
ID : 4<br>
Format : AAC LC<br>
Format/Info : Advanced Audio Codec Low Complexity<br>
Codec ID : A_AAC-2<br>
Duration : 1 h 36 min<br>
Bit rate : 125 kb/s<br>
Channel(s) : 2 channels<br>
Channel layout : L R<br>
Sampling rate : 48.0 kHz<br>
Frame rate : 46.875 FPS (1024 SPF)<br>
Compression mode : Lossy<br>
Stream size : 86.2 MiB (1%)<br>
Language : Czech<br>
Default : No<br>
Forced : No<br>
<br>
Audio #4<br>
ID : 5<br>
Format : E-AC-3<br>
Format/Info : Enhanced AC-3<br>
Commercial name : Dolby Digital Plus<br>
Codec ID : A_EAC3<br>
Duration : 1 h 36 min<br>
Bit rate mode : Constant<br>
Bit rate : 256 kb/s<br>
Channel(s) : 6 channels<br>
Channel layout : L R C LFE Ls Rs<br>
Sampling rate : 48.0 kHz<br>
Frame rate : 31.250 FPS (1536 SPF)<br>
Compression mode : Lossy<br>
Stream size : 176 MiB (3%)<br>
Language : German<br>
Service kind : Complete Main<br>
Default : No<br>
Forced : No<br>
<br>
Audio #5<br>
ID : 6<br>
Format : E-AC-3<br>
Format/Info : Enhanced AC-3<br>
Commercial name : Dolby Digital Plus<br>
Codec ID : A_EAC3<br>
Duration : 1 h 36 min<br>
Bit rate mode : Constant<br>
Bit rate : 256 kb/s<br>
Channel(s) : 6 channels<br>
Channel layout : L R C LFE Ls Rs<br>
Sampling rate : 48.0 kHz<br>
Frame rate : 31.250 FPS (1536 SPF)<br>
Compression mode : Lossy<br>
Stream size : 176 MiB (3%)<br>
Language : Greek<br>
Service kind : Complete Main<br>
Default : No<br>
Forced : No<br>
<br>
Audio #6<br>
ID : 7<br>
Format : E-AC-3<br>
Format/Info : Enhanced AC-3<br>
Commercial name : Dolby Digital Plus<br>
Codec ID : A_EAC3<br>
Duration : 1 h 36 min<br>
Bit rate mode : Constant<br>
Bit rate : 256 kb/s<br>
Channel(s) : 6 channels<br>
Channel layout : L R C LFE Ls Rs<br>
Sampling rate : 48.0 kHz<br>
Frame rate : 31.250 FPS (1536 SPF)<br>
Compression mode : Lossy<br>
Stream size : 176 MiB (3%)<br>
Title : Latin American<br>
Language : Spanish<br>
Service kind : Complete Main<br>
Default : No<br>
Forced : No<br>
<br>
Audio #7<br>
ID : 8<br>
Format : AAC LC<br>
Format/Info : Advanced Audio Codec Low Complexity<br>
Codec ID : A_AAC-2<br>
Duration : 1 h 36 min<br>
Bit rate : 125 kb/s<br>
Channel(s) : 2 channels<br>
Channel layout : L R<br>
Sampling rate : 48.0 kHz<br>
Frame rate : 46.875 FPS (1024 SPF)<br>
Compression mode : Lossy<br>
Stream size : 86.2 MiB (1%)<br>
Title : European<br>
Language : Spanish<br>
Default : No<br>
Forced : No<br>
<br>
Audio #8<br>
ID : 9<br>
Format : AAC LC<br>
Format/Info : Advanced Audio Codec Low Complexity<br>
Codec ID : A_AAC-2<br>
Duration : 1 h 36 min<br>
Bit rate : 125 kb/s<br>
Channel(s) : 2 channels<br>
Channel layout : L R<br>
Sampling rate : 48.0 kHz<br>
Frame rate : 46.875 FPS (1024 SPF)<br>
Compression mode : Lossy<br>
Stream size : 86.2 MiB (1%)<br>
Title : Canadian<br>
Language : French<br>
Default : No<br>
Forced : No<br>
<br>
Audio #9<br>
ID : 10<br>
Format : E-AC-3<br>
Format/Info : Enhanced AC-3<br>
Commercial name : Dolby Digital Plus<br>
Codec ID : A_EAC3<br>
Duration : 1 h 36 min<br>
Bit rate mode : Constant<br>
Bit rate : 256 kb/s<br>
Channel(s) : 6 channels<br>
Channel layout : L R C LFE Ls Rs<br>
Sampling rate : 48.0 kHz<br>
Frame rate : 31.250 FPS (1536 SPF)<br>
Compression mode : Lossy<br>
Stream size : 176 MiB (3%)<br>
Language : French<br>
Service kind : Complete Main<br>
Default : No<br>
Forced : No<br>
<br>
Audio #10<br>
ID : 11<br>
Format : AAC LC<br>
Format/Info : Advanced Audio Codec Low Complexity<br>
Codec ID : A_AAC-2<br>
Duration : 1 h 36 min<br>
Bit rate : 125 kb/s<br>
Channel(s) : 2 channels<br>
Channel layout : L R<br>
Sampling rate : 48.0 kHz<br>
Frame rate : 46.875 FPS (1024 SPF)<br>
Compression mode : Lossy<br>
Stream size : 86.2 MiB (1%)<br>
Language : Hungarian<br>
Default : No<br>
Forced : No<br>
<br>
Audio #11<br>
ID : 12<br>
Format : AAC LC<br>
Format/Info : Advanced Audio Codec Low Complexity<br>
Codec ID : A_AAC-2<br>
Duration : 1 h 36 min<br>
Bit rate : 125 kb/s<br>
Channel(s) : 2 channels<br>
Channel layout : L R<br>
Sampling rate : 48.0 kHz<br>
Frame rate : 46.875 FPS (1024 SPF)<br>
Compression mode : Lossy<br>
Stream size : 86.2 MiB (1%)<br>
Language : Italian<br>
Default : No<br>
Forced : No<br>
<br>
Audio #12<br>
ID : 13<br>
Format : AAC LC<br>
Format/Info : Advanced Audio Codec Low Complexity<br>
Codec ID : A_AAC-2<br>
Duration : 1 h 36 min<br>
Bit rate : 125 kb/s<br>
Channel(s) : 2 channels<br>
Channel layout : L R<br>
Sampling rate : 48.0 kHz<br>
Frame rate : 46.875 FPS (1024 SPF)<br>
Compression mode : Lossy<br>
Stream size : 86.2 MiB (1%)<br>
Language : Japanese<br>
Default : No<br>
Forced : No<br>
<br>
Audio #13<br>
ID : 14<br>
Format : AAC LC<br>
Format/Info : Advanced Audio Codec Low Complexity<br>
Codec ID : A_AAC-2<br>
Duration : 1 h 36 min<br>
Bit rate : 125 kb/s<br>
Channel(s) : 2 channels<br>
Channel layout : L R<br>
Sampling rate : 48.0 kHz<br>
Frame rate : 46.875 FPS (1024 SPF)<br>
Compression mode : Lossy<br>
Stream size : 86.2 MiB (1%)<br>
Language : Polish<br>
Default : No<br>
Forced : No<br>
<br>
Audio #14<br>
ID : 15<br>
Format : AAC LC<br>
Format/Info : Advanced Audio Codec Low Complexity<br>
Codec ID : A_AAC-2<br>
Duration : 1 h 36 min<br>
Bit rate : 125 kb/s<br>
Channel(s) : 2 channels<br>
Channel layout : L R<br>
Sampling rate : 48.0 kHz<br>
Frame rate : 46.875 FPS (1024 SPF)<br>
Compression mode : Lossy<br>
Stream size : 86.2 MiB (1%)<br>
Title : Brazilian<br>
Language : Portuguese<br>
Default : No<br>
Forced : No<br>
<br>
Audio #15<br>
ID : 16<br>
Format : E-AC-3<br>
Format/Info : Enhanced AC-3<br>
Commercial name : Dolby Digital Plus<br>
Codec ID : A_EAC3<br>
Duration : 1 h 36 min<br>
Bit rate mode : Constant<br>
Bit rate : 256 kb/s<br>
Channel(s) : 6 channels<br>
Channel layout : L R C LFE Ls Rs<br>
Sampling rate : 48.0 kHz<br>
Frame rate : 31.250 FPS (1536 SPF)<br>
Compression mode : Lossy<br>
Stream size : 176 MiB (3%)<br>
Language : Turkish<br>
Service kind : Complete Main<br>
Default : No<br>
Forced : No<br>
<br>
Text #1<br>
ID : 17<br>
Format : UTF-8<br>
Codec ID : S_TEXT/UTF8<br>
Codec ID/Info : UTF-8 Plain Text<br>
Duration : 1 h 33 min<br>
Bit rate : 59 b/s<br>
Frame rate : 0.247 FPS<br>
Count of elements : 1378<br>
Stream size : 40.3 KiB (0%)<br>
Title : SDH<br>
Language : English<br>
Default : No<br>
Forced : No<br>
<br>
Text #2<br>
ID : 18<br>
Format : UTF-8<br>
Codec ID : S_TEXT/UTF8<br>
Codec ID/Info : UTF-8 Plain Text<br>
Duration : 1 h 31 min<br>
Bit rate : 40 b/s<br>
Frame rate : 0.146 FPS<br>
Count of elements : 798<br>
Stream size : 27.2 KiB (0%)<br>
Language : Danish<br>
Default : No<br>
Forced : No<br>
<br>
Text #3<br>
ID : 19<br>
Format : UTF-8<br>
Codec ID : S_TEXT/UTF8<br>
Codec ID/Info : UTF-8 Plain Text<br>
Duration : 1 h 18 min<br>
Bit rate : 0 b/s<br>
Frame rate : 0.002 FPS<br>
Count of elements : 8<br>
Stream size : 109 Bytes (0%)<br>
Title : Forced<br>
Language : German<br>
Default : No<br>
Forced : Yes<br>
<br>
Text #4<br>
ID : 20<br>
Format : UTF-8<br>
Codec ID : S_TEXT/UTF8<br>
Codec ID/Info : UTF-8 Plain Text<br>
Duration : 1 h 34 min<br>
Bit rate : 42 b/s<br>
Frame rate : 0.137 FPS<br>
Count of elements : 773<br>
Stream size : 29.2 KiB (0%)<br>
Language : German<br>
Default : No<br>
Forced : No<br>
<br>
Text #5<br>
ID : 21<br>
Format : UTF-8<br>
Codec ID : S_TEXT/UTF8<br>
Codec ID/Info : UTF-8 Plain Text<br>
Duration : 1 h 31 min<br>
Bit rate : 66 b/s<br>
Frame rate : 0.155 FPS<br>
Count of elements : 851<br>
Stream size : 44.6 KiB (0%)<br>
Language : Greek<br>
Default : No<br>
Forced : No<br>
<br>
Text #6<br>
ID : 22<br>
Format : UTF-8<br>
Codec ID : S_TEXT/UTF8<br>
Codec ID/Info : UTF-8 Plain Text<br>
Duration : 1 h 9 min<br>
Bit rate : 1 b/s<br>
Frame rate : 0.007 FPS<br>
Count of elements : 28<br>
Stream size : 799 Bytes (0%)<br>
Title : Latin American (Forced)<br>
Language : Spanish<br>
Default : No<br>
Forced : Yes<br>
<br>
Text #7<br>
ID : 23<br>
Format : UTF-8<br>
Codec ID : S_TEXT/UTF8<br>
Codec ID/Info : UTF-8 Plain Text<br>
Duration : 1 h 31 min<br>
Bit rate : 45 b/s<br>
Frame rate : 0.206 FPS<br>
Count of elements : 1129<br>
Stream size : 30.5 KiB (0%)<br>
Title : Latin American<br>
Language : Spanish<br>
Default : No<br>
Forced : No<br>
<br>
Text #8<br>
ID : 24<br>
Format : UTF-8<br>
Codec ID : S_TEXT/UTF8<br>
Codec ID/Info : UTF-8 Plain Text<br>
Duration : 1 h 18 min<br>
Bit rate : 0 b/s<br>
Frame rate : 0.002 FPS<br>
Count of elements : 10<br>
Stream size : 138 Bytes (0%)<br>
Title : European (Forced)<br>
Language : Spanish<br>
Default : No<br>
Forced : Yes<br>
<br>
Text #9<br>
ID : 25<br>
Format : UTF-8<br>
Codec ID : S_TEXT/UTF8<br>
Codec ID/Info : UTF-8 Plain Text<br>
Duration : 1 h 32 min<br>
Bit rate : 46 b/s<br>
Frame rate : 0.164 FPS<br>
Count of elements : 912<br>
Stream size : 31.3 KiB (0%)<br>
Title : European<br>
Language : Spanish<br>
Default : No<br>
Forced : No<br>
<br>
Text #10<br>
ID : 26<br>
Format : UTF-8<br>
Codec ID : S_TEXT/UTF8<br>
Codec ID/Info : UTF-8 Plain Text<br>
Duration : 1 h 34 min<br>
Bit rate : 39 b/s<br>
Frame rate : 0.145 FPS<br>
Count of elements : 819<br>
Stream size : 27.2 KiB (0%)<br>
Language : Finnish<br>
Default : No<br>
Forced : No<br>
<br>
Text #11<br>
ID : 27<br>
Format : UTF-8<br>
Codec ID : S_TEXT/UTF8<br>
Codec ID/Info : UTF-8 Plain Text<br>
Duration : 1 h 22 min<br>
Bit rate : 1 b/s<br>
Frame rate : 0.007 FPS<br>
Count of elements : 33<br>
Stream size : 841 Bytes (0%)<br>
Title : Canadian (Forced)<br>
Language : French<br>
Default : No<br>
Forced : Yes<br>
<br>
Text #12<br>
ID : 28<br>
Format : UTF-8<br>
Codec ID : S_TEXT/UTF8<br>
Codec ID/Info : UTF-8 Plain Text<br>
Duration : 1 h 32 min<br>
Bit rate : 70 b/s<br>
Frame rate : 0.325 FPS<br>
Count of elements : 1808<br>
Stream size : 47.8 KiB (0%)<br>
Title : Canadian (SDH)<br>
Language : French<br>
Default : No<br>
Forced : No<br>
<br>
Text #13<br>
ID : 29<br>
Format : UTF-8<br>
Codec ID : S_TEXT/UTF8<br>
Codec ID/Info : UTF-8 Plain Text<br>
Duration : 1 s 400 ms<br>
Bit rate : 97 b/s<br>
Frame rate : 0.714 FPS<br>
Count of elements : 1<br>
Stream size : 17.0 Bytes (0%)<br>
Title : Forced<br>
Language : French<br>
Default : No<br>
Forced : Yes<br>
<br>
Text #14<br>
ID : 30<br>
Format : UTF-8<br>
Codec ID : S_TEXT/UTF8<br>
Codec ID/Info : UTF-8 Plain Text<br>
Duration : 1 h 31 min<br>
Bit rate : 42 b/s<br>
Frame rate : 0.143 FPS<br>
Count of elements : 781<br>
Stream size : 28.5 KiB (0%)<br>
Language : French<br>
Default : No<br>
Forced : No<br>
<br>
Text #15<br>
ID : 31<br>
Format : UTF-8<br>
Codec ID : S_TEXT/UTF8<br>
Codec ID/Info : UTF-8 Plain Text<br>
Duration : 1 h 31 min<br>
Bit rate : 55 b/s<br>
Frame rate : 0.215 FPS<br>
Count of elements : 1181<br>
Stream size : 37.1 KiB (0%)<br>
Language : Icelandic<br>
Default : No<br>
Forced : No<br>
<br>
Text #16<br>
ID : 32<br>
Format : UTF-8<br>
Codec ID : S_TEXT/UTF8<br>
Codec ID/Info : UTF-8 Plain Text<br>
Duration : 1 h 21 min<br>
Bit rate : 1 b/s<br>
Frame rate : 0.006 FPS<br>
Count of elements : 29<br>
Stream size : 669 Bytes (0%)<br>
Title : Forced<br>
Language : Italian<br>
Default : No<br>
Forced : Yes<br>
<br>
Text #17<br>
ID : 33<br>
Format : UTF-8<br>
Codec ID : S_TEXT/UTF8<br>
Codec ID/Info : UTF-8 Plain Text<br>
Duration : 1 h 34 min<br>
Bit rate : 42 b/s<br>
Frame rate : 0.140 FPS<br>
Count of elements : 793<br>
Stream size : 29.1 KiB (0%)<br>
Language : Italian<br>
Default : No<br>
Forced : No<br>
<br>
Text #18<br>
ID : 34<br>
Format : UTF-8<br>
Codec ID : S_TEXT/UTF8<br>
Codec ID/Info : UTF-8 Plain Text<br>
Duration : 1 h 19 min<br>
Bit rate : 2 b/s<br>
Frame rate : 0.006 FPS<br>
Count of elements : 31<br>
Stream size : 1.56 KiB (0%)<br>
Title : Forced<br>
Language : Japanese<br>
Default : No<br>
Forced : Yes<br>
<br>
Text #19<br>
ID : 35<br>
Format : UTF-8<br>
Codec ID : S_TEXT/UTF8<br>
Codec ID/Info : UTF-8 Plain Text<br>
Duration : 1 h 31 min<br>
Bit rate : 41 b/s<br>
Frame rate : 0.191 FPS<br>
Count of elements : 1048<br>
Stream size : 27.9 KiB (0%)<br>
Language : Japanese<br>
Default : No<br>
Forced : No<br>
<br>
Text #20<br>
ID : 36<br>
Format : UTF-8<br>
Codec ID : S_TEXT/UTF8<br>
Codec ID/Info : UTF-8 Plain Text<br>
Duration : 1 h 35 min<br>
Bit rate : 53 b/s<br>
Frame rate : 0.206 FPS<br>
Count of elements : 1182<br>
Stream size : 37.4 KiB (0%)<br>
Language : Korean<br>
Default : No<br>
Forced : No<br>
<br>
Text #21<br>
ID : 37<br>
Format : UTF-8<br>
Codec ID : S_TEXT/UTF8<br>
Codec ID/Info : UTF-8 Plain Text<br>
Duration : 1 h 34 min<br>
Bit rate : 40 b/s<br>
Frame rate : 0.139 FPS<br>
Count of elements : 785<br>
Stream size : 27.8 KiB (0%)<br>
Language : Dutch<br>
Default : No<br>
Forced : No<br>
<br>
Text #22<br>
ID : 38<br>
Format : UTF-8<br>
Codec ID : S_TEXT/UTF8<br>
Codec ID/Info : UTF-8 Plain Text<br>
Duration : 1 h 31 min<br>
Bit rate : 41 b/s<br>
Frame rate : 0.154 FPS<br>
Count of elements : 845<br>
Stream size : 27.8 KiB (0%)<br>
Language : Norwegian<br>
Default : No<br>
Forced : No<br>
<br>
Text #23<br>
ID : 39<br>
Format : UTF-8<br>
Codec ID : S_TEXT/UTF8<br>
Codec ID/Info : UTF-8 Plain Text<br>
Duration : 1 h 34 min<br>
Bit rate : 50 b/s<br>
Frame rate : 0.206 FPS<br>
Count of elements : 1168<br>
Stream size : 34.8 KiB (0%)<br>
Language : Polish<br>
Default : No<br>
Forced : No<br>
<br>
Text #24<br>
ID : 40<br>
Format : UTF-8<br>
Codec ID : S_TEXT/UTF8<br>
Codec ID/Info : UTF-8 Plain Text<br>
Duration : 1 h 32 min<br>
Bit rate : 48 b/s<br>
Frame rate : 0.207 FPS<br>
Count of elements : 1145<br>
Stream size : 32.9 KiB (0%)<br>
Title : Brazilian<br>
Language : Portuguese<br>
Default : No<br>
Forced : No<br>
<br>
Text #25<br>
ID : 41<br>
Format : UTF-8<br>
Codec ID : S_TEXT/UTF8<br>
Codec ID/Info : UTF-8 Plain Text<br>
Duration : 1 h 22 min<br>
Bit rate : 0 b/s<br>
Frame rate : 0.002 FPS<br>
Count of elements : 10<br>
Stream size : 238 Bytes (0%)<br>
Title : Brazilian (Forced)<br>
Language : Portuguese<br>
Default : No<br>
Forced : Yes<br>
<br>
Text #26<br>
ID : 42<br>
Format : UTF-8<br>
Codec ID : S_TEXT/UTF8<br>
Codec ID/Info : UTF-8 Plain Text<br>
Duration : 1 h 32 min<br>
Bit rate : 41 b/s<br>
Frame rate : 0.173 FPS<br>
Count of elements : 961<br>
Stream size : 27.9 KiB (0%)<br>
Title : European<br>
Language : Portuguese<br>
Default : No<br>
Forced : No<br>
<br>
Text #27<br>
ID : 43<br>
Format : UTF-8<br>
Codec ID : S_TEXT/UTF8<br>
Codec ID/Info : UTF-8 Plain Text<br>
Duration : 1 h 31 min<br>
Bit rate : 48 b/s<br>
Frame rate : 0.168 FPS<br>
Count of elements : 928<br>
Stream size : 32.9 KiB (0%)<br>
Language : Romanian<br>
Default : No<br>
Forced : No<br>
<br>
Text #28<br>
ID : 44<br>
Format : UTF-8<br>
Codec ID : S_TEXT/UTF8<br>
Codec ID/Info : UTF-8 Plain Text<br>
Duration : 1 h 34 min<br>
Bit rate : 40 b/s<br>
Frame rate : 0.140 FPS<br>
Count of elements : 794<br>
Stream size : 28.0 KiB (0%)<br>
Language : Swedish<br>
Default : No<br>
Forced : No<br>
<br>
Text #29<br>
ID : 45<br>
Format : UTF-8<br>
Codec ID : S_TEXT/UTF8<br>
Codec ID/Info : UTF-8 Plain Text<br>
Duration : 1 h 35 min<br>
Bit rate : 50 b/s<br>
Frame rate : 0.205 FPS<br>
Count of elements : 1176<br>
Stream size : 35.1 KiB (0%)<br>
Language : Turkish<br>
Default : No<br>
Forced : No<br>
<br>
Text #30<br>
ID : 46<br>
Format : UTF-8<br>
Codec ID : S_TEXT/UTF8<br>
Codec ID/Info : UTF-8 Plain Text<br>
Duration : 1 h 31 min<br>
Bit rate : 50 b/s<br>
Frame rate : 0.253 FPS<br>
Count of elements : 1391<br>
Stream size : 33.7 KiB (0%)<br>
Title : Simplified<br>
Language : Chinese<br>
Default : No<br>
Forced : No<br>
<br>
Text #31<br>
ID : 47<br>
Format : UTF-8<br>
Codec ID : S_TEXT/UTF8<br>
Codec ID/Info : UTF-8 Plain Text<br>
Duration : 1 h 35 min<br>
Bit rate : 43 b/s<br>
Frame rate : 0.207 FPS<br>
Count of elements : 1185<br>
Stream size : 30.4 KiB (0%)<br>
Title : Traditional<br>
Language : Chinese<br>
Default : No<br>
Forced : No<br>
<br>
Menu<br>
01:33:30.310 : en:Credits</div>
</div><br>
<b>Screenshots</b><br>
<img src="https://i.imgur.com/Q9D5nvA.png" class="bbCodeImage LbImage" alt="[​IMG]" data-url="https://i.imgur.com/Q9D5nvA.png" style=""><br>
<br>
<b>Download</b><br>
<div class="bbCodeBlock bbCodeVfcHH HiddenContent">
<div class="attribution type">Hidden Content:</div>
<blockquote>You must reply before you can see the hidden data contained here.</blockquote>
</div></div>
<div class="messageTextEndMarker">&nbsp;</div>
</blockquote>
</article>]]></description>
                <author><![CDATA[Samuel]]></author>
                </item>

                
                <item>
                <title><![CDATA[【Albums (lossy)】MP3 - Various Artists - Nối Lại Tình Xưa | MP3 Deezer 320kbps]]></title>
                <link><![CDATA[https://sharemania.us/threads/various-artists-n%E1%BB%91i-l%E1%BA%A1i-t%C3%ACnh-x%C6%B0a-mp3-deezer-320kbps.224201/]]></link>
                <description><![CDATA[<article>
<blockquote class="messageText SelectQuoteContainer ugc baseHtml">
<b><img src="https://static.qobuz.com/images/covers/vb/ki/edu5rpbnjkivb_600.jpg" class="bbCodeImage LbImage" alt="[​IMG]" data-url="https://static.qobuz.com/images/covers/vb/ki/edu5rpbnjkivb_600.jpg" style=""> <br>
<br>
Title: <span style="font-size: 22px">Nối Lại Tình Xưa</span></b><br>
<b>Artist: Various Artists<br>
Genre:</b> <b>Asia<br>
<b>Release date: </b>21/01/2006<br>
℗ 2006 THUY NGA</b><br>
<br>
• Tracklist:<br>
1. Nửa Đời Hương Phấn - Như Quỳnh, Mạnh Quỳnh<br>
2. Xác Pháo Nhà Ai - Như Quỳnh<br>
3. Nối Lại Tình Xưa - Như Quỳnh, Mạnh Quỳnh<br>
4. Đen Bạc - Trường Vũ<br>
5. LK Trong Tầm Mắt Đời &amp; Thương Hận - Trường Vũ, Chế Linh<br>
6. Mộng Tình - Tâm Đoan<br>
7. Chuyện Một Chiếc Cầu Đã Gẫy - Quang Lê<br>
8. Tình Lúa Duyên Trăng - Quang Lê, Ngọc Hạ<br>
9. Còn Thương Rau Đắng Mọc Sau Hè - Như Quỳnh<br>
10. Tôi Đã Yêu Người - Mạnh Quỳnh<br>
11. LK Đêm Vũ Trường &amp; Phận Tơ Tằm - Phương Hồng Quế, Thái Châu<br>
12. Hòn Vọng Phu 1 - Thế Sơn<br>
<br>
<div class="bbCodeBlock bbCodeVfcHH HiddenContent">
<div class="attribution type">Hidden Content:</div>
<blockquote>You must reply before you can see the hidden data contained here.</blockquote>
</div>
<div class="messageTextEndMarker">&nbsp;</div>
</blockquote>
</article>]]></description>
                <author><![CDATA[luc51nsl]]></author>
                </item>

                
                <item>
                <title><![CDATA[【Albums (lossless)】FLAC - Various Artists - Nối Lại Tình Xưa | FLAC Tidal 16bit / 44.1kHz]]></title>
                <link><![CDATA[https://sharemania.us/threads/various-artists-n%E1%BB%91i-l%E1%BA%A1i-t%C3%ACnh-x%C6%B0a-flac-tidal-16bit-44-1khz.224199/]]></link>
                <description><![CDATA[<article>
<blockquote class="messageText SelectQuoteContainer ugc baseHtml">
<img src="https://static.qobuz.com/images/covers/vb/ki/edu5rpbnjkivb_600.jpg" class="bbCodeImage LbImage" alt="[​IMG]" data-url="https://static.qobuz.com/images/covers/vb/ki/edu5rpbnjkivb_600.jpg" style=""> <br>
<br>
<b>Title: <span style="font-size: 22px">Nối Lại Tình Xưa</span></b><br>
<b>Artist: Various Artists<br>
Genre:</b> <b>Asia<br>
<b>Release date: </b>21/01/2006<br>
℗ 2006 THUY NGA</b><br>
<br>
• Tracklist:<br>
1. Nửa Đời Hương Phấn - Như Quỳnh, Mạnh Quỳnh<br>
2. Xác Pháo Nhà Ai - Như Quỳnh<br>
3. Nối Lại Tình Xưa - Như Quỳnh, Mạnh Quỳnh<br>
4. Đen Bạc - Trường Vũ<br>
5. LK Trong Tầm Mắt Đời &amp; Thương Hận - Trường Vũ, Chế Linh<br>
6. Mộng Tình - Tâm Đoan<br>
7. Chuyện Một Chiếc Cầu Đã Gẫy - Quang Lê<br>
8. Tình Lúa Duyên Trăng - Quang Lê, Ngọc Hạ<br>
9. Còn Thương Rau Đắng Mọc Sau Hè - Như Quỳnh<br>
10. Tôi Đã Yêu Người - Mạnh Quỳnh<br>
11. LK Đêm Vũ Trường &amp; Phận Tơ Tằm - Phương Hồng Quế, Thái Châu<br>
12. Hòn Vọng Phu 1 - Thế Sơn<br>
<br>
<div class="bbCodeBlock bbCodeVfcHH HiddenContent">
<div class="attribution type">Hidden Content:</div>
<blockquote>You must reply before you can see the hidden data contained here.</blockquote>
</div>
<div class="messageTextEndMarker">&nbsp;</div>
</blockquote>
</article>]]></description>
                <author><![CDATA[luc51nsl]]></author>
                </item>

                
                <item>
                <title><![CDATA[【Cinema Center】MOVIE - The Guardians of the Galaxy Holiday Special (2022) 2160p DSNP WEB-DL HDR10 DDP5.1 Atmos]]></title>
                <link><![CDATA[https://sharemania.us/threads/the-guardians-of-the-galaxy-holiday-special-2022-2160p-dsnp-web-dl-hdr10-ddp5-1-atmos.224197/]]></link>
                <description><![CDATA[<article>
<blockquote class="messageText SelectQuoteContainer ugc baseHtml">
<img src="https://images2.imgbox.com/5e/cc/IDY2Ch9X_o.jpg" class="bbCodeImage LbImage" alt="[​IMG]" data-url="https://images2.imgbox.com/5e/cc/IDY2Ch9X_o.jpg" style=""><br>
<div style="text-align: center">
<div class="bbCodeBlock bbCodeVfcHH HiddenContent">
<div class="attribution type">Hidden Content:</div>
<blockquote>You must reply before you can see the hidden data contained here.</blockquote>
</div><img src="https://images2.imgbox.com/f5/ce/ziEiKsZz_o.png" class="bbCodeImage LbImage" alt="[​IMG]" data-url="https://images2.imgbox.com/f5/ce/ziEiKsZz_o.png" style=""> ​</div>
<div class="messageTextEndMarker">&nbsp;</div>
</blockquote>
</article>]]></description>
                <author><![CDATA[Cauã]]></author>
                </item>

                
                <item>
                <title><![CDATA[【Requests】[REQ AUD] - Jay-Z - Magna Carta... Holy Grail (Qobuz FLAC)]]></title>
                <link><![CDATA[https://sharemania.us/threads/jay-z-magna-carta-holy-grail-qobuz-flac.224196/]]></link>
                <description><![CDATA[<article>
<blockquote class="messageText SelectQuoteContainer ugc baseHtml">
I've been looking for this album bu no luck...<br>
<br>
<a href="https://www.qobuz.com/us-en/album/magna-carta-holy-grail-jay-z/0085902600713" target="_blank" class="externalLink" rel="nofollow">https://www.qobuz.com/us-en/album/magna-carta-holy-grail-jay-z/0085902600713</a>
<div class="messageTextEndMarker">&nbsp;</div>
</blockquote>
</article>]]></description>
                <author><![CDATA[amam]]></author>
                </item>

                
                <item>
                <title><![CDATA[【Albums (lossy)】M4A - Various Artists - Nối Lại Tình Xưa | M4A]]></title>
                <link><![CDATA[https://sharemania.us/threads/various-artists-n%E1%BB%91i-l%E1%BA%A1i-t%C3%ACnh-x%C6%B0a-m4a.224198/]]></link>
                <description><![CDATA[<article>
<blockquote class="messageText SelectQuoteContainer ugc baseHtml">
<img src="https://static.qobuz.com/images/covers/vb/ki/edu5rpbnjkivb_600.jpg" class="bbCodeImage LbImage" alt="[​IMG]" data-url="https://static.qobuz.com/images/covers/vb/ki/edu5rpbnjkivb_600.jpg" style=""> <br>
<br>
<b>Title: <span style="font-size: 22px">Nối Lại Tình Xưa</span></b><br>
<b>Artist: Various Artists<br>
Genre:</b> <b>Asia<br>
<b>Release date: </b>21/01/2006<br>
℗ 2006 THUY NGA</b><br>
<br>
• Tracklist:<br>
1. Nửa Đời Hương Phấn - Như Quỳnh, Mạnh Quỳnh<br>
2. Xác Pháo Nhà Ai - Như Quỳnh<br>
3. Nối Lại Tình Xưa - Như Quỳnh, Mạnh Quỳnh<br>
4. Đen Bạc - Trường Vũ<br>
5. LK Trong Tầm Mắt Đời &amp; Thương Hận - Trường Vũ, Chế Linh<br>
6. Mộng Tình - Tâm Đoan<br>
7. Chuyện Một Chiếc Cầu Đã Gẫy - Quang Lê<br>
8. Tình Lúa Duyên Trăng - Quang Lê, Ngọc Hạ<br>
9. Còn Thương Rau Đắng Mọc Sau Hè - Như Quỳnh<br>
10. Tôi Đã Yêu Người - Mạnh Quỳnh<br>
11. LK Đêm Vũ Trường &amp; Phận Tơ Tằm - Phương Hồng Quế, Thái Châu<br>
12. Hòn Vọng Phu 1 - Thế Sơn<br>
<br>
<div class="bbCodeBlock bbCodeVfcHH HiddenContent">
<div class="attribution type">Hidden Content:</div>
<blockquote>You must reply before you can see the hidden data contained here.</blockquote>
</div>
<div class="messageTextEndMarker">&nbsp;</div>
</blockquote>
</article>]]></description>
                <author><![CDATA[luc51nsl]]></author>
                </item>

                
                <item>
                <title><![CDATA[【Albums (lossy)】MP3 - Various Artists - Nối Lại Tình Xưa | MP3 Deezer 320kbps]]></title>
                <link><![CDATA[https://sharemania.us/threads/various-artists-n%E1%BB%91i-l%E1%BA%A1i-t%C3%ACnh-x%C6%B0a-mp3-deezer-320kbps.224200/]]></link>
                <description><![CDATA[<article>
<blockquote class="messageText SelectQuoteContainer ugc baseHtml">
<b><img src="https://static.qobuz.com/images/covers/vb/ki/edu5rpbnjkivb_600.jpg" class="bbCodeImage LbImage" alt="[​IMG]" data-url="https://static.qobuz.com/images/covers/vb/ki/edu5rpbnjkivb_600.jpg" style=""> <br>
<br>
Title: <span style="font-size: 22px">Nối Lại Tình Xưa</span></b><br>
<b>Artist: Various Artists<br>
Genre:</b> <b>Asia<br>
<b>Release date: </b>21/01/2006<br>
℗ 2006 THUY NGA</b><br>
<br>
• Tracklist:<br>
1. Nửa Đời Hương Phấn - Như Quỳnh, Mạnh Quỳnh<br>
2. Xác Pháo Nhà Ai - Như Quỳnh<br>
3. Nối Lại Tình Xưa - Như Quỳnh, Mạnh Quỳnh<br>
4. Đen Bạc - Trường Vũ<br>
5. LK Trong Tầm Mắt Đời &amp; Thương Hận - Trường Vũ, Chế Linh<br>
6. Mộng Tình - Tâm Đoan<br>
7. Chuyện Một Chiếc Cầu Đã Gẫy - Quang Lê<br>
8. Tình Lúa Duyên Trăng - Quang Lê, Ngọc Hạ<br>
9. Còn Thương Rau Đắng Mọc Sau Hè - Như Quỳnh<br>
10. Tôi Đã Yêu Người - Mạnh Quỳnh<br>
11. LK Đêm Vũ Trường &amp; Phận Tơ Tằm - Phương Hồng Quế, Thái Châu<br>
12. Hòn Vọng Phu 1 - Thế Sơn<br>
<br>
<div class="bbCodeBlock bbCodeVfcHH HiddenContent">
<div class="attribution type">Hidden Content:</div>
<blockquote>You must reply before you can see the hidden data contained here.</blockquote>
</div>
<div class="messageTextEndMarker">&nbsp;</div>
</blockquote>
</article>]]></description>
                <author><![CDATA[luc51nsl]]></author>
                </item>

                </channel></rss>